<svg width="363" height="47" viewBox="0 0 363 47" fill="none" xmlns="http://www.w3.org/2000/svg">
<path d="M0.316406 46.3047C0.105469 44.9922 0.175781 43.6562 0.527344 42.2969C0.855469 40.9609 1.30078 39.625 1.86328 38.2891C2.40234 36.9531 2.95312 35.6172 3.51562 34.2812C4.07812 32.9688 4.46484 31.6797 4.67578 30.4141C4.67578 30.3672 4.76953 30.2266 4.95703 29.9922C5.16797 29.7578 5.39062 29.5117 5.625 29.2539C5.88281 28.9727 6.10547 28.7148 6.29297 28.4805C6.50391 28.2227 6.62109 28.0703 6.64453 28.0234C7.01953 27.2031 7.39453 26.4531 7.76953 25.7734C8.16797 25.0703 8.47266 24.3906 8.68359 23.7344C8.89453 23.0781 8.98828 22.4336 8.96484 21.8008C8.94141 21.1445 8.70703 20.4414 8.26172 19.6914C8.21484 19.6445 8.19141 19.5742 8.19141 19.4805C8.19141 19.3867 8.21484 19.3281 8.26172 19.3047C8.94141 18.4375 9.72656 17.7109 10.6172 17.125C11.5078 16.5391 12.457 16.0703 13.4648 15.7188C14.4727 15.3672 15.5156 15.1328 16.5938 15.0156C17.6719 14.8984 18.7383 14.875 19.793 14.9453C20.6836 15.6953 21.2461 16.5508 21.4805 17.5117C21.7383 18.4492 21.75 19.4336 21.5156 20.4648C21.3047 21.4727 20.8945 22.4922 20.2852 23.5234C19.6992 24.5547 19.0195 25.5156 18.2461 26.4062C17.4727 27.2969 16.6523 28.0938 15.7852 28.7969C14.9414 29.5 14.1445 30.0391 13.3945 30.4141C12.7148 30.7422 12.2109 30.9648 11.8828 31.082C11.5781 31.1758 11.2734 31.2344 10.9688 31.2578C10.6641 31.2812 10.2891 31.3047 9.84375 31.3281C9.42188 31.3516 8.76562 31.4453 7.875 31.6094C7.47656 31.6797 7.13672 31.8672 6.85547 32.1719C6.59766 32.4531 6.375 32.7812 6.1875 33.1562C6.02344 33.5078 5.88281 33.8711 5.76562 34.2461C5.67188 34.6445 5.57812 34.9609 5.48438 35.1953C5.0625 36.2266 4.67578 37.1758 4.32422 38.043C3.99609 38.9336 3.67969 39.8008 3.375 40.6445C3.04688 41.5117 2.73047 42.4023 2.42578 43.3164C2.12109 44.2305 1.80469 45.2266 1.47656 46.3047C1.42969 46.4219 1.34766 46.5156 1.23047 46.5859C1.11328 46.6797 0.996094 46.7266 0.878906 46.7266C0.738281 46.75 0.621094 46.7266 0.527344 46.6562C0.410156 46.6094 0.339844 46.4922 0.316406 46.3047ZM8.26172 30.0273C9.33984 30.2383 10.3828 30.1797 11.3906 29.8516C12.4219 29.5234 13.3828 29.0195 14.2734 28.3398C15.1641 27.6367 15.9609 26.8047 16.6641 25.8438C17.3906 24.8594 18 23.8281 18.4922 22.75C18.9844 21.6719 19.3477 20.5938 19.582 19.5156C19.8164 18.4141 19.8867 17.4062 19.793 16.4922C19.4648 16.2109 19.0664 16.0703 18.5977 16.0703C18.1523 16.0469 17.7539 16.0586 17.4023 16.1055C16.1367 16.2695 15.1406 16.5977 14.4141 17.0898C13.6875 17.5586 13.0898 18.1562 12.6211 18.8828C12.1758 19.6094 11.7891 20.4531 11.4609 21.4141C11.1328 22.3516 10.7344 23.3711 10.2656 24.4727C10.1719 24.6367 10.0312 24.9297 9.84375 25.3516C9.65625 25.75 9.45703 26.1836 9.24609 26.6523C9.03516 27.0977 8.83594 27.5312 8.64844 27.9531C8.46094 28.375 8.33203 28.668 8.26172 28.832V30.0273ZM23.5547 33.6133C23.5078 33.5898 23.5078 33.3203 23.5547 32.8047C23.625 32.2656 23.7188 31.5977 23.8359 30.8008C23.9531 30.0039 24.1055 29.125 24.293 28.1641C24.4805 27.2031 24.6797 26.2891 24.8906 25.4219C25.1016 24.5312 25.3242 23.7578 25.5586 23.1016C25.8164 22.4219 26.0625 21.9531 26.2969 21.6953C26.4609 21.5312 26.625 21.5312 26.7891 21.6953C26.9531 21.8359 27.1172 22.0234 27.2812 22.2578C27.4453 22.4688 27.6094 22.668 27.7734 22.8555C27.9375 23.0195 28.1133 23.0312 28.3008 22.8906C28.957 21.9766 29.6719 21.1094 30.4453 20.2891C31.2422 19.4453 32.1211 18.7188 33.082 18.1094C33.1758 18.0391 33.4336 17.9336 33.8555 17.793C34.2773 17.6289 34.7578 17.4766 35.2969 17.3359C35.8359 17.1719 36.3867 17.043 36.9492 16.9492C37.5352 16.832 38.0273 16.7852 38.4258 16.8086C38.8477 16.8086 39.1289 16.9141 39.2695 17.125C39.4336 17.3125 39.3633 17.6406 39.0586 18.1094C37.6523 18.1328 36.3398 18.543 35.1211 19.3398C33.9023 20.1367 32.7773 21.1211 31.7461 22.293C30.7148 23.4648 29.7773 24.7422 28.9336 26.125C28.0898 27.4844 27.3516 28.75 26.7188 29.9219C26.1094 31.0938 25.5938 32.0664 25.1719 32.8398C24.7734 33.6133 24.4805 34 24.293 34C24.2695 34 24.1641 33.9531 23.9766 33.8594C23.7891 33.7422 23.6484 33.6602 23.5547 33.6133ZM42.3984 33.6133C41.4141 33.2148 40.793 32.6172 40.5352 31.8203C40.3008 31.0234 40.3125 30.1445 40.5703 29.1836C40.8281 28.1992 41.2734 27.1914 41.9062 26.1602C42.5391 25.1055 43.2422 24.1445 44.0156 23.2773C44.7891 22.4102 45.5625 21.6836 46.3359 21.0977C47.1328 20.4883 47.8125 20.1484 48.375 20.0781C49.8281 19.8906 50.9648 19.9961 51.7852 20.3945C52.6289 20.7695 53.2031 21.3203 53.5078 22.0469C53.8125 22.7734 53.8945 23.6289 53.7539 24.6133C53.6133 25.5742 53.2969 26.5469 52.8047 27.5312C52.3359 28.5156 51.7148 29.4648 50.9414 30.3789C50.1914 31.293 49.3477 32.0664 48.4102 32.6992C47.4961 33.3086 46.5234 33.7188 45.4922 33.9297C44.4609 34.1172 43.4297 34.0117 42.3984 33.6133ZM42.0117 31.6094C42.1992 32.3594 42.5977 32.7812 43.207 32.875C43.8164 32.9453 44.5195 32.793 45.3164 32.418C46.1367 32.0195 46.9922 31.457 47.8828 30.7305C48.7734 29.9805 49.582 29.1719 50.3086 28.3047C51.0586 27.4375 51.668 26.5703 52.1367 25.7031C52.6289 24.8125 52.8633 24.0391 52.8398 23.3828C52.8398 22.7266 52.5234 22.2344 51.8906 21.9062C51.2812 21.5547 50.25 21.4844 48.7969 21.6953C48.4688 22 48.0469 22.375 47.5312 22.8203C47.0156 23.2422 46.4766 23.7109 45.9141 24.2266C45.375 24.7422 44.8359 25.3047 44.2969 25.9141C43.7578 26.5 43.2891 27.1094 42.8906 27.7422C42.4922 28.375 42.1992 29.0195 42.0117 29.6758C41.8477 30.332 41.8477 30.9766 42.0117 31.6094ZM76.6055 33.1914C76.3477 32.8867 76.1953 32.5469 76.1484 32.1719C76.125 31.7734 76.1484 31.3867 76.2188 31.0117C76.3125 30.6133 76.4297 30.2383 76.5703 29.8867C76.7344 29.5117 76.8867 29.1719 77.0273 28.8672C77.1211 28.6328 77.3086 28.2109 77.5898 27.6016C77.8945 26.9688 78.2109 26.3125 78.5391 25.6328C78.8906 24.9531 79.2188 24.3203 79.5234 23.7344C79.8281 23.125 80.0391 22.7031 80.1562 22.4688V21.6953C79.9219 21.5781 79.4414 21.7422 78.7148 22.1875C77.9883 22.6094 77.1445 23.207 76.1836 23.9805C75.2227 24.7305 74.2031 25.5742 73.125 26.5117C72.0469 27.4492 71.0273 28.3516 70.0664 29.2188C69.1289 30.0625 68.3086 30.8242 67.6055 31.5039C66.9023 32.1602 66.457 32.5938 66.2695 32.8047C65.7539 32.9688 65.4141 32.8633 65.25 32.4883C65.1094 32.0898 65.0742 31.5508 65.1445 30.8711C65.2148 30.168 65.3555 29.3945 65.5664 28.5508C65.7773 27.6836 65.9883 26.875 66.1992 26.125C66.4336 25.3516 66.6328 24.6953 66.7969 24.1562C66.9844 23.6172 67.0664 23.3242 67.043 23.2773C66.5742 23.1133 66.082 23.1719 65.5664 23.4531C65.0508 23.7344 64.5234 24.1562 63.9844 24.7188C63.4453 25.2578 62.9062 25.9023 62.3672 26.6523C61.8281 27.3789 61.2891 28.1172 60.75 28.8672C60.2109 29.5938 59.6953 30.2969 59.2031 30.9766C58.7109 31.6328 58.2422 32.1719 57.7969 32.5938C57.3516 33.0156 56.9297 33.2617 56.5312 33.332C56.1562 33.4023 55.8281 33.2266 55.5469 32.8047C55.5234 32.7812 55.5117 32.7227 55.5117 32.6289C55.5117 32.5352 55.5234 32.4648 55.5469 32.418C55.6641 32.1836 55.8398 31.8203 56.0742 31.3281C56.332 30.8125 56.6133 30.2383 56.918 29.6055C57.2227 28.9727 57.5508 28.3164 57.9023 27.6367C58.2539 26.9336 58.582 26.2773 58.8867 25.668C59.2148 25.0352 59.4961 24.4727 59.7305 23.9805C59.9883 23.4883 60.1875 23.125 60.3281 22.8906C60.4453 22.6562 60.6094 22.3633 60.8203 22.0117C61.0312 21.6367 61.2422 21.2852 61.4531 20.957C61.6641 20.6055 61.8516 20.3125 62.0156 20.0781C62.1797 19.8203 62.2617 19.6914 62.2617 19.6914H63.1055C63.2695 20.2305 63.2461 20.7344 63.0352 21.2031C62.8242 21.6719 62.5664 22.1289 62.2617 22.5742C61.9805 23.0195 61.7344 23.4648 61.5234 23.9102C61.3359 24.332 61.3359 24.7891 61.5234 25.2812C63.5391 23.5 65.0859 22.1875 66.1641 21.3438C67.2656 20.5 68.0391 20.0195 68.4844 19.9023C68.9297 19.7852 69.1406 19.9609 69.1172 20.4297C69.0938 20.8984 68.9883 21.5312 68.8008 22.3281C68.6367 23.125 68.4609 24.0391 68.2734 25.0703C68.1094 26.0781 68.0977 27.0625 68.2383 28.0234H68.6602C68.8008 27.9297 69.0352 27.7539 69.3633 27.4961C69.6914 27.2383 70.043 26.957 70.418 26.6523C70.8164 26.3477 71.1797 26.0664 71.5078 25.8086C71.8594 25.5508 72.1055 25.375 72.2461 25.2812C72.5039 25.0703 72.8789 24.7773 73.3711 24.4023C73.8633 24.0273 74.3555 23.6523 74.8477 23.2773C75.3633 22.8789 75.8203 22.5391 76.2188 22.2578C76.6406 21.9531 76.9102 21.7656 77.0273 21.6953C77.1211 21.625 77.3203 21.4844 77.625 21.2734C77.9531 21.0391 78.3047 20.793 78.6797 20.5352C79.0781 20.2773 79.4531 20.043 79.8047 19.832C80.1562 19.5977 80.4141 19.4219 80.5781 19.3047C80.9297 19.0703 81.2578 18.9648 81.5625 18.9883C81.8672 19.0117 82.1133 19.1289 82.3008 19.3398C82.5117 19.5273 82.6406 19.7969 82.6875 20.1484C82.7344 20.4766 82.6875 20.8516 82.5469 21.2734C81.9844 22.3281 81.4219 23.3594 80.8594 24.3672C80.3203 25.375 79.8164 26.3945 79.3477 27.4258C78.9023 28.4336 78.5273 29.4766 78.2227 30.5547C77.9414 31.6328 77.7891 32.7812 77.7656 34C77.6484 34.0703 77.5195 34.0703 77.3789 34C77.2617 33.9297 77.1445 33.8359 77.0273 33.7188C76.9102 33.6016 76.8047 33.4844 76.7109 33.3672C76.6406 33.25 76.6055 33.1914 76.6055 33.1914ZM80.5781 46.3047C80.3672 44.9922 80.4375 43.6562 80.7891 42.2969C81.1172 40.9609 81.5625 39.625 82.125 38.2891C82.6641 36.9531 83.2148 35.6172 83.7773 34.2812C84.3398 32.9688 84.7266 31.6797 84.9375 30.4141C84.9375 30.3672 85.0312 30.2266 85.2188 29.9922C85.4297 29.7578 85.6523 29.5117 85.8867 29.2539C86.1445 28.9727 86.3672 28.7148 86.5547 28.4805C86.7656 28.2227 86.8828 28.0703 86.9062 28.0234C87.2812 27.2031 87.6562 26.4531 88.0312 25.7734C88.4297 25.0703 88.7344 24.3906 88.9453 23.7344C89.1562 23.0781 89.25 22.4336 89.2266 21.8008C89.2031 21.1445 88.9688 20.4414 88.5234 19.6914C88.4766 19.6445 88.4531 19.5742 88.4531 19.4805C88.4531 19.3867 88.4766 19.3281 88.5234 19.3047C89.2031 18.4375 89.9883 17.7109 90.8789 17.125C91.7695 16.5391 92.7188 16.0703 93.7266 15.7188C94.7344 15.3672 95.7773 15.1328 96.8555 15.0156C97.9336 14.8984 99 14.875 100.055 14.9453C100.945 15.6953 101.508 16.5508 101.742 17.5117C102 18.4492 102.012 19.4336 101.777 20.4648C101.566 21.4727 101.156 22.4922 100.547 23.5234C99.9609 24.5547 99.2812 25.5156 98.5078 26.4062C97.7344 27.2969 96.9141 28.0938 96.0469 28.7969C95.2031 29.5 94.4062 30.0391 93.6562 30.4141C92.9766 30.7422 92.4727 30.9648 92.1445 31.082C91.8398 31.1758 91.5352 31.2344 91.2305 31.2578C90.9258 31.2812 90.5508 31.3047 90.1055 31.3281C89.6836 31.3516 89.0273 31.4453 88.1367 31.6094C87.7383 31.6797 87.3984 31.8672 87.1172 32.1719C86.8594 32.4531 86.6367 32.7812 86.4492 33.1562C86.2852 33.5078 86.1445 33.8711 86.0273 34.2461C85.9336 34.6445 85.8398 34.9609 85.7461 35.1953C85.3242 36.2266 84.9375 37.1758 84.5859 38.043C84.2578 38.9336 83.9414 39.8008 83.6367 40.6445C83.3086 41.5117 82.9922 42.4023 82.6875 43.3164C82.3828 44.2305 82.0664 45.2266 81.7383 46.3047C81.6914 46.4219 81.6094 46.5156 81.4922 46.5859C81.375 46.6797 81.2578 46.7266 81.1406 46.7266C81 46.75 80.8828 46.7266 80.7891 46.6562C80.6719 46.6094 80.6016 46.4922 80.5781 46.3047ZM88.5234 30.0273C89.6016 30.2383 90.6445 30.1797 91.6523 29.8516C92.6836 29.5234 93.6445 29.0195 94.5352 28.3398C95.4258 27.6367 96.2227 26.8047 96.9258 25.8438C97.6523 24.8594 98.2617 23.8281 98.7539 22.75C99.2461 21.6719 99.6094 20.5938 99.8438 19.5156C100.078 18.4141 100.148 17.4062 100.055 16.4922C99.7266 16.2109 99.3281 16.0703 98.8594 16.0703C98.4141 16.0469 98.0156 16.0586 97.6641 16.1055C96.3984 16.2695 95.4023 16.5977 94.6758 17.0898C93.9492 17.5586 93.3516 18.1562 92.8828 18.8828C92.4375 19.6094 92.0508 20.4531 91.7227 21.4141C91.3945 22.3516 90.9961 23.3711 90.5273 24.4727C90.4336 24.6367 90.293 24.9297 90.1055 25.3516C89.918 25.75 89.7188 26.1836 89.5078 26.6523C89.2969 27.0977 89.0977 27.5312 88.9102 27.9531C88.7227 28.375 88.5938 28.668 88.5234 28.832V30.0273ZM105.996 33.6133C105.973 33.5664 105.961 33.4375 105.961 33.2266C105.961 33.0156 105.973 32.875 105.996 32.8047C106.066 32.5469 106.195 32.1016 106.383 31.4688C106.57 30.8125 106.77 30.1328 106.98 29.4297C107.191 28.7031 107.391 28.0234 107.578 27.3906C107.766 26.7578 107.895 26.3125 107.965 26.0547C108.059 25.7266 108.164 25.3516 108.281 24.9297C108.398 24.4844 108.422 24.0625 108.352 23.6641C108 23.6172 107.566 23.6641 107.051 23.8047C106.535 23.9219 106.02 24.0273 105.504 24.1211C105.012 24.1914 104.543 24.1914 104.098 24.1211C103.676 24.0273 103.371 23.7461 103.184 23.2773C103.465 22.6914 103.887 22.3164 104.449 22.1523C105.012 21.9648 105.621 21.8359 106.277 21.7656C106.934 21.6953 107.555 21.5898 108.141 21.4492C108.75 21.3086 109.23 20.9922 109.582 20.5C109.793 19.8906 110.039 19.1523 110.32 18.2852C110.625 17.3945 110.941 16.4688 111.27 15.5078C111.598 14.5469 111.949 13.5977 112.324 12.6602C112.723 11.7227 113.133 10.8906 113.555 10.1641C113.812 10 114.023 9.98828 114.188 10.1289C114.352 10.2695 114.469 10.4805 114.539 10.7617C114.633 11.0195 114.691 11.2891 114.715 11.5703C114.738 11.8516 114.738 12.0391 114.715 12.1328C114.574 12.7422 114.328 13.3984 113.977 14.1016C113.648 14.7813 113.332 15.4727 113.027 16.1758C112.746 16.8789 112.512 17.582 112.324 18.2852C112.16 18.9883 112.16 19.6562 112.324 20.2891H119.883C119.906 20.2891 119.965 20.3711 120.059 20.5352C120.152 20.6758 120.234 20.793 120.305 20.8867C120.422 21.2148 120.293 21.4375 119.918 21.5547C119.543 21.6719 119.039 21.7539 118.406 21.8008C117.773 21.8242 117.047 21.8477 116.227 21.8711C115.43 21.8711 114.656 21.9297 113.906 22.0469C113.18 22.1406 112.523 22.3164 111.938 22.5742C111.352 22.8086 110.953 23.1719 110.742 23.6641C110.133 25.2344 109.57 26.8164 109.055 28.4102C108.539 29.9805 108.047 31.5742 107.578 33.1914C107.531 33.2617 107.438 33.3789 107.297 33.543C107.156 33.6836 107.004 33.8125 106.84 33.9297C106.676 34.0234 106.512 34.0586 106.348 34.0352C106.207 34.0117 106.09 33.8711 105.996 33.6133Z" fill="black"/>
<path d="M140.916 24.3115C140.916 23.0875 141.154 19.5369 143.418 15.9354C144.819 13.7076 150.978 14.1615 154.882 14.9308C157.457 15.4382 159.288 20.1731 165.587 26.2295C168.064 28.611 173.15 30.0814 176.168 30.8069C179.186 31.5325 180.461 30.8461 181.383 30.0191C184.347 27.3626 184.299 24.4594 184.818 20.151C185.252 16.5395 183.913 13.0312 182.484 11.072C180.949 8.96834 178.144 8.38384 175.413 7.7368C171.424 6.79151 166.284 7.72803 164.679 8.86759C162.598 10.346 161.641 13.575 160.88 16.003C160.256 17.9912 158.599 23.426 156.71 30.3194C155.794 33.6637 154.767 35.2475 153.591 36.7459C152.658 37.9351 151.44 38.1105 150.479 38.1851C149.193 38.285 148.007 37.863 147.218 37.1425C144.906 35.0322 145.067 26.5675 146.581 19.8269C147.638 15.1244 154.766 12.1774 159.309 11.3563C163.076 10.6754 166.284 11.5549 168.243 12.4574C175.399 15.7557 178.91 22.0206 181.435 25.5251C187.347 33.7331 191.852 39.2956 192.626 39.9581C194.406 41.4818 196.118 41.0993 196.989 40.8622C198.729 40.3885 200.308 35.4329 203.769 26.2859C206.483 19.1107 205.931 9.82907 204.887 7.2411C204.716 6.81849 203.931 7.07646 203.616 7.31354C203.301 7.55063 203.217 8.0248 203.297 8.43086C203.741 10.6854 208.527 11.0795 210.906 12.0443C212.363 12.635 218.903 15.1956 227.704 18.8568C230.811 20.1492 231.209 20.1671 231.294 19.9014C231.379 19.6357 231.151 19.0537 230.594 18.4847C229.328 17.1895 225.842 16.0211 221.095 14.625C216.678 13.3257 209.996 13.2939 202.995 13.3739C197.154 13.4407 193.371 16.9047 190.619 19.6137C188.484 21.7166 185.986 29.0253 184.341 33.1618C183.919 34.2237 182.971 35.0737 182.01 35.8522C181.024 36.6516 179.511 36.6847 178.181 36.467C176.017 36.1128 175.821 31.7585 175.522 23.6139C175.233 15.7235 180.238 11.3435 183.006 9.33762C187.609 6.002 193.936 8.09863 198.272 10.4433C200.02 11.3884 203.206 14.5366 207.872 19.0646C214.347 25.3486 216.356 29.4614 216.383 30.2722C216.423 31.4272 213.833 32.1063 209.899 32.8707C203.7 34.0755 197.687 34.1513 194.033 33.9306C190.205 33.6994 189.013 31.2402 187.2 30.117C185.821 29.2632 183.946 29.1903 178.579 29.0012C174.025 28.8408 165.744 28.937 161.064 28.8746C153.97 28.78 151.444 28.0881 149.644 27.6026C148.89 27.3992 148.807 26.2115 148.191 25.6557C147.861 25.3588 147.209 25.4667 146.824 25.6377C146.132 25.945 145.835 26.845 145.265 27.4406C144.716 28.0149 143.815 28.0092 143.087 27.8528C142.723 27.7747 142.475 27.3839 142.373 27.0106C142.162 26.2409 142.772 25.4678 143.112 25.0621C143.348 24.7807 141.992 25.3156 141.534 25.2831C141.376 25.2719 141.697 24.7571 142.2 24.4215C146.628 21.4695 154.095 21.2964 159.075 20.3052C163.393 19.4459 171.298 17.634 176.334 16.4697C185.839 14.2721 187.855 13.777 194.566 12.737C201.373 11.6823 209.864 10.7157 210.582 10.1423C211.239 9.61805 210.688 8.55098 210.541 7.97464C209.86 5.3026 218.307 7.83505 226.893 11.323C234.109 14.2543 238.163 19.4731 240.19 22.1071C241.93 24.3679 241.883 27.4574 241.695 29.7082C241.551 31.4299 239.933 32.0522 239.06 32.3855C235.252 33.8393 227.204 31.8585 224.088 30.0972C222.552 29.2285 221.878 27.7032 221.497 26.7051C221.321 26.2452 221.308 25.8363 221.411 25.3506C222.126 21.9671 227.953 17.7367 229.687 15.408C230.682 14.072 229.745 10.0783 230.539 7.0898C230.665 6.61437 231.306 6.62127 231.792 6.63951C234.443 6.73911 237.273 9.50425 238.737 11.3939C239.949 12.9577 240.385 16.7972 240.492 21.8549C240.52 23.2124 239.901 23.9486 239.086 24.7023C237.86 25.8361 235.863 26.2387 233.925 26.4933C231.843 26.7667 228.257 25.3039 223.449 22.5328C218.658 19.7714 215.665 16.4686 213.736 14.0769C210.359 9.88948 208.439 7.37284 206.292 6.79134C203.905 6.14467 201.532 8.43354 197.46 10.4011C194.822 11.6756 192.49 11.8397 190.233 11.9773C186.187 12.2238 181.568 12.3176 178.119 12.6136C173.248 13.0316 167.928 12.6523 166.455 11.9041C163.972 10.6428 159.508 11.8876 154.524 12.9479C152.599 13.3573 151.19 12.8312 150.073 12.1413C148.188 10.9778 147.998 7.95895 147.697 5.90999C147.515 4.67103 147.133 8.95423 146.755 10.584C146.067 13.5503 144.136 16.7272 144.071 17.4665C144.39 18.17 144.975 18.8464 145.565 19.5501C145.835 19.9279 146.044 20.3474 146.526 21.1802" stroke="black" stroke-width="2" stroke-linecap="round"/>
<path d="M268.855 13.425C269.589 13.425 270.247 13.4917 270.83 13.625C271.414 13.7583 271.897 13.9083 272.28 14.075C272.664 14.225 272.914 14.3667 273.03 14.5C273.097 14.55 273.13 14.6 273.13 14.65C273.147 14.6833 273.155 14.725 273.155 14.775C273.155 15.075 273.155 15.375 273.155 15.675C273.155 15.975 273.155 16.2833 273.155 16.6H272.78C272.197 16.2833 271.605 16.0333 271.005 15.85C270.422 15.6667 269.739 15.575 268.955 15.575C268.055 15.575 267.305 15.7167 266.705 16C266.122 16.2667 265.68 16.6917 265.38 17.275C265.097 17.8583 264.955 18.5917 264.955 19.475V21.35C264.955 21.9667 265.039 22.5083 265.205 22.975C265.372 23.4417 265.614 23.8333 265.93 24.15C266.247 24.4667 266.647 24.7083 267.13 24.875C267.614 25.0417 268.205 25.125 268.905 25.125C269.439 25.125 269.922 25.0833 270.355 25C270.789 24.9167 271.197 24.8 271.58 24.65C271.98 24.5 272.38 24.325 272.78 24.125H273.155C273.155 24.425 273.155 24.7333 273.155 25.05C273.155 25.35 273.155 25.65 273.155 25.95C273.155 25.9833 273.147 26.0167 273.13 26.05C273.13 26.0833 273.114 26.1167 273.08 26.15C272.914 26.3333 272.622 26.5083 272.205 26.675C271.805 26.8417 271.305 26.9833 270.705 27.1C270.105 27.2167 269.455 27.275 268.755 27.275C267.805 27.275 266.947 27.1417 266.18 26.875C265.43 26.5917 264.789 26.2 264.255 25.7C263.722 25.2 263.314 24.6 263.03 23.9C262.747 23.1833 262.605 22.3917 262.605 21.525V19.25C262.605 18.0167 262.864 16.9667 263.38 16.1C263.914 15.2333 264.647 14.575 265.58 14.125C266.514 13.6583 267.605 13.425 268.855 13.425ZM282.971 13.425C283.821 13.425 284.596 13.5667 285.296 13.85C285.996 14.1167 286.596 14.4917 287.096 14.975C287.612 15.4583 288.004 16.0333 288.271 16.7C288.537 17.3667 288.671 18.1 288.671 18.9V21.675C288.671 22.775 288.421 23.75 287.921 24.6C287.437 25.4333 286.762 26.0917 285.896 26.575C285.029 27.0417 284.054 27.275 282.971 27.275C282.121 27.275 281.346 27.1417 280.646 26.875C279.946 26.6083 279.337 26.2333 278.821 25.75C278.321 25.25 277.937 24.6667 277.671 24C277.404 23.3333 277.271 22.6 277.271 21.8V19.025C277.271 17.9083 277.512 16.9333 277.996 16.1C278.496 15.2667 279.179 14.6167 280.046 14.15C280.912 13.6667 281.887 13.425 282.971 13.425ZM283.096 15.525C282.329 15.525 281.679 15.6833 281.146 16C280.629 16.3167 280.229 16.7417 279.946 17.275C279.679 17.8083 279.546 18.4167 279.546 19.1V21.625C279.546 22.175 279.629 22.675 279.796 23.125C279.979 23.5583 280.221 23.9333 280.521 24.25C280.804 24.5333 281.137 24.7583 281.521 24.925C281.921 25.0917 282.362 25.175 282.846 25.175C283.612 25.175 284.254 25.0167 284.771 24.7C285.304 24.3667 285.704 23.9333 285.971 23.4C286.254 22.8667 286.396 22.2667 286.396 21.6V19.075C286.396 18.4917 286.312 17.975 286.146 17.525C285.996 17.075 285.762 16.7 285.446 16.4C285.179 16.1167 284.846 15.9 284.446 15.75C284.046 15.6 283.596 15.525 283.096 15.525ZM296.536 13.425C297.136 13.425 297.669 13.5167 298.136 13.7C298.603 13.8667 299.028 14.1167 299.411 14.45C299.811 14.7833 300.161 15.1917 300.461 15.675H301.211V18.4C300.611 17.4333 299.969 16.7333 299.286 16.3C298.603 15.85 297.886 15.625 297.136 15.625C296.586 15.625 296.103 15.75 295.686 16C295.286 16.2333 294.969 16.5917 294.736 17.075C294.519 17.5417 294.411 18.125 294.411 18.825V22C294.411 22.5333 294.478 23 294.611 23.4C294.761 23.7833 294.953 24.1 295.186 24.35C295.419 24.5833 295.703 24.7583 296.036 24.875C296.369 24.9917 296.736 25.05 297.136 25.05C297.619 25.05 298.094 24.9667 298.561 24.8C299.028 24.6167 299.486 24.325 299.936 23.925C300.386 23.525 300.811 23 301.211 22.35V24.975H300.461C300.161 25.4583 299.811 25.8667 299.411 26.2C299.011 26.5333 298.561 26.7917 298.061 26.975C297.578 27.1583 297.053 27.25 296.486 27.25C295.853 27.25 295.261 27.1417 294.711 26.925C294.178 26.6917 293.719 26.3667 293.336 25.95C292.953 25.5333 292.653 25.025 292.436 24.425C292.236 23.825 292.136 23.1417 292.136 22.375V18.45C292.136 17.6667 292.236 16.9667 292.436 16.35C292.653 15.7333 292.953 15.2083 293.336 14.775C293.736 14.3417 294.203 14.0083 294.736 13.775C295.286 13.5417 295.886 13.425 296.536 13.425ZM302.861 8.25C302.928 8.25 302.978 8.26667 303.011 8.3C303.044 8.31667 303.069 8.34167 303.086 8.375C303.119 8.40833 303.136 8.45833 303.136 8.525C303.136 9.80833 303.136 11.1167 303.136 12.45C303.136 13.7833 303.136 15.1083 303.136 16.425C303.136 17.7417 303.136 19.0417 303.136 20.325C303.136 21.5917 303.136 22.8167 303.136 24C303.136 24.5667 303.136 25.1083 303.136 25.625C303.136 26.125 303.136 26.5833 303.136 27C302.969 27 302.794 27 302.611 27C302.444 27 302.278 27 302.111 27C301.944 27 301.778 27 301.611 27C301.444 27 301.278 27 301.111 27C301.061 27 301.011 26.9917 300.961 26.975C300.928 26.9417 300.894 26.9083 300.861 26.875C300.844 26.8417 300.836 26.7917 300.836 26.725C300.836 25.3917 300.836 24.0583 300.836 22.725C300.836 21.3917 300.836 20.0667 300.836 18.75C300.836 17.4167 300.836 16.0833 300.836 14.75C300.836 13.4167 300.836 12.0833 300.836 10.75C300.836 10.35 300.836 9.94167 300.836 9.525C300.836 9.10833 300.836 8.68333 300.836 8.25C301.003 8.25 301.169 8.25 301.336 8.25C301.503 8.25 301.669 8.25 301.836 8.25C302.003 8.25 302.169 8.25 302.336 8.25C302.519 8.25 302.694 8.25 302.861 8.25ZM313.026 13.425C314.01 13.425 314.91 13.6333 315.726 14.05C316.543 14.45 317.193 15.0667 317.676 15.9C318.176 16.7167 318.426 17.7667 318.426 19.05V20.875C318.426 20.925 318.41 20.975 318.376 21.025C318.36 21.0583 318.335 21.0917 318.301 21.125C318.268 21.1417 318.218 21.15 318.151 21.15H311.676C311.393 21.15 311.11 21.15 310.826 21.15C310.543 21.15 310.268 21.15 310.001 21.15H309.251L308.926 19.525H316.176C316.176 19.4417 316.176 19.3583 316.176 19.275C316.176 19.1917 316.176 19.1083 316.176 19.025C316.176 18.375 316.101 17.8167 315.951 17.35C315.818 16.8667 315.601 16.475 315.301 16.175C315.035 15.925 314.71 15.7417 314.326 15.625C313.943 15.4917 313.51 15.425 313.026 15.425C311.943 15.425 311.11 15.7167 310.526 16.3C309.943 16.8667 309.651 17.8 309.651 19.1V21.725C309.651 22.0917 309.685 22.4333 309.751 22.75C309.818 23.05 309.91 23.325 310.026 23.575C310.16 23.825 310.318 24.05 310.501 24.25C310.835 24.5833 311.268 24.8333 311.801 25C312.351 25.15 312.985 25.225 313.701 25.225C314.301 25.225 314.835 25.1917 315.301 25.125C315.768 25.0583 316.201 24.95 316.601 24.8C317.018 24.65 317.435 24.4583 317.851 24.225H318.226C318.226 24.525 318.226 24.825 318.226 25.125C318.226 25.425 318.226 25.7167 318.226 26C318.226 26.0333 318.218 26.0667 318.201 26.1C318.185 26.1333 318.16 26.1667 318.126 26.2C317.926 26.4 317.601 26.5833 317.151 26.75C316.701 26.9167 316.176 27.0417 315.576 27.125C314.976 27.225 314.343 27.275 313.676 27.275C312.66 27.275 311.751 27.1583 310.951 26.925C310.151 26.675 309.485 26.3167 308.951 25.85C308.435 25.3667 308.043 24.7833 307.776 24.1C307.51 23.4167 307.376 22.625 307.376 21.725V19.125C307.376 18.1583 307.518 17.3167 307.801 16.6C308.101 15.8833 308.51 15.2917 309.026 14.825C309.543 14.3583 310.143 14.0083 310.826 13.775C311.51 13.5417 312.243 13.425 313.026 13.425Z" fill="black"/>
<path d="M241.076 22.7313C241.603 22.3247 244.512 20.0975 246.673 18.6711C248.794 17.2713 252.913 18.5517 254.73 19.2127C255.474 19.4835 256.358 19.5661 256.927 19.4407C256.045 18.3741 255.269 17.1532 254.743 16.4726C254.483 16.1357 254.237 15.816 253.688 15.0854" stroke="black" stroke-width="2" stroke-linecap="round"/>
<path d="M257.162 19.5342C257.104 19.5342 256.764 19.8399 256.121 20.422C255.789 20.6984 255.445 20.9361 255.097 21.1748C254.75 21.4134 254.411 21.6457 253.573 22.2801" stroke="black" stroke-width="2" stroke-linecap="round"/>
<path d="M131.137 20.3168C132.185 19.4179 133.587 18.2369 135.271 17.2427C135.744 17.0098 136.24 16.803 137.517 16.6965C138.795 16.5899 140.839 16.5899 143.326 16.7958" stroke="black" stroke-width="2" stroke-linecap="round"/>
<path d="M117.595 21.072C118.48 21.072 120.966 21.6027 122.831 22.5742C124.763 23.0509 126.709 22.7429 128.459 22.0581C128.898 21.8939 129.325 21.7305 130.329 20.8691" stroke="black" stroke-width="2" stroke-linecap="round"/>
<path d="M318.48 19C317.928 19 317.48 19.4477 317.48 20C317.48 20.5523 317.928 21 318.48 21L318.48 20L318.48 19ZM352.147 20C352.147 22.9455 354.535 25.3333 357.48 25.3333C360.426 25.3333 362.814 22.9455 362.814 20C362.814 17.0545 360.426 14.6667 357.48 14.6667C354.535 14.6667 352.147 17.0545 352.147 20ZM318.48 20L318.48 21L357.48 21L357.48 20L357.48 19L318.48 19L318.48 20Z" fill="black"/>
</svg>
