<svg width="358" height="45" viewBox="0 0 358 45" fill="none" xmlns="http://www.w3.org/2000/svg">
<path d="M0.28125 40.9375C0.09375 39.7708 0.15625 38.5833 0.46875 37.375C0.760417 36.1875 1.15625 35 1.65625 33.8125C2.13542 32.625 2.625 31.4375 3.125 30.25C3.625 29.0833 3.96875 27.9375 4.15625 26.8125C4.15625 26.7708 4.23958 26.6458 4.40625 26.4375C4.59375 26.2292 4.79167 26.0104 5 25.7812C5.22917 25.5312 5.42708 25.3021 5.59375 25.0938C5.78125 24.8646 5.88542 24.7292 5.90625 24.6875C6.23958 23.9583 6.57292 23.2917 6.90625 22.6875C7.26042 22.0625 7.53125 21.4583 7.71875 20.875C7.90625 20.2917 7.98958 19.7188 7.96875 19.1562C7.94792 18.5729 7.73958 17.9479 7.34375 17.2812C7.30208 17.2396 7.28125 17.1771 7.28125 17.0938C7.28125 17.0104 7.30208 16.9583 7.34375 16.9375C7.94792 16.1667 8.64583 15.5208 9.4375 15C10.2292 14.4792 11.0729 14.0625 11.9688 13.75C12.8646 13.4375 13.7917 13.2292 14.75 13.125C15.7083 13.0208 16.6562 13 17.5938 13.0625C18.3854 13.7292 18.8854 14.4896 19.0938 15.3438C19.3229 16.1771 19.3333 17.0521 19.125 17.9688C18.9375 18.8646 18.5729 19.7708 18.0312 20.6875C17.5104 21.6042 16.9062 22.4583 16.2188 23.25C15.5312 24.0417 14.8021 24.75 14.0312 25.375C13.2812 26 12.5729 26.4792 11.9062 26.8125C11.3021 27.1042 10.8542 27.3021 10.5625 27.4062C10.2917 27.4896 10.0208 27.5417 9.75 27.5625C9.47917 27.5833 9.14583 27.6042 8.75 27.625C8.375 27.6458 7.79167 27.7292 7 27.875C6.64583 27.9375 6.34375 28.1042 6.09375 28.375C5.86458 28.625 5.66667 28.9167 5.5 29.25C5.35417 29.5625 5.22917 29.8854 5.125 30.2188C5.04167 30.5729 4.95833 30.8542 4.875 31.0625C4.5 31.9792 4.15625 32.8229 3.84375 33.5938C3.55208 34.3854 3.27083 35.1562 3 35.9062C2.70833 36.6771 2.42708 37.4688 2.15625 38.2812C1.88542 39.0938 1.60417 39.9792 1.3125 40.9375C1.27083 41.0417 1.19792 41.125 1.09375 41.1875C0.989583 41.2708 0.885417 41.3125 0.78125 41.3125C0.65625 41.3333 0.552083 41.3125 0.46875 41.25C0.364583 41.2083 0.302083 41.1042 0.28125 40.9375ZM7.34375 26.4688C8.30208 26.6562 9.22917 26.6042 10.125 26.3125C11.0417 26.0208 11.8958 25.5729 12.6875 24.9688C13.4792 24.3438 14.1875 23.6042 14.8125 22.75C15.4583 21.875 16 20.9583 16.4375 20C16.875 19.0417 17.1979 18.0833 17.4062 17.125C17.6146 16.1458 17.6771 15.25 17.5938 14.4375C17.3021 14.1875 16.9479 14.0625 16.5312 14.0625C16.1354 14.0417 15.7812 14.0521 15.4688 14.0938C14.3438 14.2396 13.4583 14.5312 12.8125 14.9688C12.1667 15.3854 11.6354 15.9167 11.2188 16.5625C10.8229 17.2083 10.4792 17.9583 10.1875 18.8125C9.89583 19.6458 9.54167 20.5521 9.125 21.5312C9.04167 21.6771 8.91667 21.9375 8.75 22.3125C8.58333 22.6667 8.40625 23.0521 8.21875 23.4688C8.03125 23.8646 7.85417 24.25 7.6875 24.625C7.52083 25 7.40625 25.2604 7.34375 25.4062V26.4688ZM20.9375 29.6562C20.8958 29.6354 20.8958 29.3958 20.9375 28.9375C21 28.4583 21.0833 27.8646 21.1875 27.1562C21.2917 26.4479 21.4271 25.6667 21.5938 24.8125C21.7604 23.9583 21.9375 23.1458 22.125 22.375C22.3125 21.5833 22.5104 20.8958 22.7188 20.3125C22.9479 19.7083 23.1667 19.2917 23.375 19.0625C23.5208 18.9167 23.6667 18.9167 23.8125 19.0625C23.9583 19.1875 24.1042 19.3542 24.25 19.5625C24.3958 19.75 24.5417 19.9271 24.6875 20.0938C24.8333 20.2396 24.9896 20.25 25.1562 20.125C25.7396 19.3125 26.375 18.5417 27.0625 17.8125C27.7708 17.0625 28.5521 16.4167 29.4062 15.875C29.4896 15.8125 29.7188 15.7188 30.0938 15.5938C30.4688 15.4479 30.8958 15.3125 31.375 15.1875C31.8542 15.0417 32.3438 14.9271 32.8438 14.8438C33.3646 14.7396 33.8021 14.6979 34.1562 14.7188C34.5312 14.7188 34.7812 14.8125 34.9062 15C35.0521 15.1667 34.9896 15.4583 34.7188 15.875C33.4688 15.8958 32.3021 16.2604 31.2188 16.9688C30.1354 17.6771 29.1354 18.5521 28.2188 19.5938C27.3021 20.6354 26.4688 21.7708 25.7188 23C24.9688 24.2083 24.3125 25.3333 23.75 26.375C23.2083 27.4167 22.75 28.2812 22.375 28.9688C22.0208 29.6562 21.7604 30 21.5938 30C21.5729 30 21.4792 29.9583 21.3125 29.875C21.1458 29.7708 21.0208 29.6979 20.9375 29.6562ZM37.6875 29.6562C36.8125 29.3021 36.2604 28.7708 36.0312 28.0625C35.8229 27.3542 35.8333 26.5729 36.0625 25.7188C36.2917 24.8438 36.6875 23.9479 37.25 23.0312C37.8125 22.0938 38.4375 21.2396 39.125 20.4688C39.8125 19.6979 40.5 19.0521 41.1875 18.5312C41.8958 17.9896 42.5 17.6875 43 17.625C44.2917 17.4583 45.3021 17.5521 46.0312 17.9062C46.7812 18.2396 47.2917 18.7292 47.5625 19.375C47.8333 20.0208 47.9062 20.7812 47.7812 21.6562C47.6562 22.5104 47.375 23.375 46.9375 24.25C46.5208 25.125 45.9688 25.9688 45.2812 26.7812C44.6146 27.5938 43.8646 28.2812 43.0312 28.8438C42.2188 29.3854 41.3542 29.75 40.4375 29.9375C39.5208 30.1042 38.6042 30.0104 37.6875 29.6562ZM37.3438 27.875C37.5104 28.5417 37.8646 28.9167 38.4062 29C38.9479 29.0625 39.5729 28.9271 40.2812 28.5938C41.0104 28.2396 41.7708 27.7396 42.5625 27.0938C43.3542 26.4271 44.0729 25.7083 44.7188 24.9375C45.3854 24.1667 45.9271 23.3958 46.3438 22.625C46.7812 21.8333 46.9896 21.1458 46.9688 20.5625C46.9688 19.9792 46.6875 19.5417 46.125 19.25C45.5833 18.9375 44.6667 18.875 43.375 19.0625C43.0833 19.3333 42.7083 19.6667 42.25 20.0625C41.7917 20.4375 41.3125 20.8542 40.8125 21.3125C40.3333 21.7708 39.8542 22.2708 39.375 22.8125C38.8958 23.3333 38.4792 23.875 38.125 24.4375C37.7708 25 37.5104 25.5729 37.3438 26.1562C37.1979 26.7396 37.1979 27.3125 37.3438 27.875ZM68.0938 29.2812C67.8646 29.0104 67.7292 28.7083 67.6875 28.375C67.6667 28.0208 67.6875 27.6771 67.75 27.3438C67.8333 26.9896 67.9375 26.6562 68.0625 26.3438C68.2083 26.0104 68.3438 25.7083 68.4688 25.4375C68.5521 25.2292 68.7188 24.8542 68.9688 24.3125C69.2396 23.75 69.5208 23.1667 69.8125 22.5625C70.125 21.9583 70.4167 21.3958 70.6875 20.875C70.9583 20.3333 71.1458 19.9583 71.25 19.75V19.0625C71.0417 18.9583 70.6146 19.1042 69.9688 19.5C69.3229 19.875 68.5729 20.4062 67.7188 21.0938C66.8646 21.7604 65.9583 22.5104 65 23.3438C64.0417 24.1771 63.1354 24.9792 62.2812 25.75C61.4479 26.5 60.7188 27.1771 60.0938 27.7812C59.4688 28.3646 59.0729 28.75 58.9062 28.9375C58.4479 29.0833 58.1458 28.9896 58 28.6562C57.875 28.3021 57.8438 27.8229 57.9062 27.2188C57.9688 26.5938 58.0938 25.9062 58.2812 25.1562C58.4688 24.3854 58.6562 23.6667 58.8438 23C59.0521 22.3125 59.2292 21.7292 59.375 21.25C59.5417 20.7708 59.6146 20.5104 59.5938 20.4688C59.1771 20.3229 58.7396 20.375 58.2812 20.625C57.8229 20.875 57.3542 21.25 56.875 21.75C56.3958 22.2292 55.9167 22.8021 55.4375 23.4688C54.9583 24.1146 54.4792 24.7708 54 25.4375C53.5208 26.0833 53.0625 26.7083 52.625 27.3125C52.1875 27.8958 51.7708 28.375 51.375 28.75C50.9792 29.125 50.6042 29.3438 50.25 29.4062C49.9167 29.4688 49.625 29.3125 49.375 28.9375C49.3542 28.9167 49.3438 28.8646 49.3438 28.7812C49.3438 28.6979 49.3542 28.6354 49.375 28.5938C49.4792 28.3854 49.6354 28.0625 49.8438 27.625C50.0729 27.1667 50.3229 26.6562 50.5938 26.0938C50.8646 25.5312 51.1562 24.9479 51.4688 24.3438C51.7812 23.7188 52.0729 23.1354 52.3438 22.5938C52.6354 22.0312 52.8854 21.5312 53.0938 21.0938C53.3229 20.6562 53.5 20.3333 53.625 20.125C53.7292 19.9167 53.875 19.6562 54.0625 19.3438C54.25 19.0104 54.4375 18.6979 54.625 18.4062C54.8125 18.0938 54.9792 17.8333 55.125 17.625C55.2708 17.3958 55.3438 17.2812 55.3438 17.2812H56.0938C56.2396 17.7604 56.2188 18.2083 56.0312 18.625C55.8438 19.0417 55.6146 19.4479 55.3438 19.8438C55.0938 20.2396 54.875 20.6354 54.6875 21.0312C54.5208 21.4062 54.5208 21.8125 54.6875 22.25C56.4792 20.6667 57.8542 19.5 58.8125 18.75C59.7917 18 60.4792 17.5729 60.875 17.4688C61.2708 17.3646 61.4583 17.5208 61.4375 17.9375C61.4167 18.3542 61.3229 18.9167 61.1562 19.625C61.0104 20.3333 60.8542 21.1458 60.6875 22.0625C60.5417 22.9583 60.5312 23.8333 60.6562 24.6875H61.0312C61.1562 24.6042 61.3646 24.4479 61.6562 24.2188C61.9479 23.9896 62.2604 23.7396 62.5938 23.4688C62.9479 23.1979 63.2708 22.9479 63.5625 22.7188C63.875 22.4896 64.0938 22.3333 64.2188 22.25C64.4479 22.0625 64.7812 21.8021 65.2188 21.4688C65.6562 21.1354 66.0938 20.8021 66.5312 20.4688C66.9896 20.1146 67.3958 19.8125 67.75 19.5625C68.125 19.2917 68.3646 19.125 68.4688 19.0625C68.5521 19 68.7292 18.875 69 18.6875C69.2917 18.4792 69.6042 18.2604 69.9375 18.0312C70.2917 17.8021 70.625 17.5938 70.9375 17.4062C71.25 17.1979 71.4792 17.0417 71.625 16.9375C71.9375 16.7292 72.2292 16.6354 72.5 16.6562C72.7708 16.6771 72.9896 16.7812 73.1562 16.9688C73.3438 17.1354 73.4583 17.375 73.5 17.6875C73.5417 17.9792 73.5 18.3125 73.375 18.6875C72.875 19.625 72.375 20.5417 71.875 21.4375C71.3958 22.3333 70.9479 23.2396 70.5312 24.1562C70.1354 25.0521 69.8021 25.9792 69.5312 26.9375C69.2812 27.8958 69.1458 28.9167 69.125 30C69.0208 30.0625 68.9062 30.0625 68.7812 30C68.6771 29.9375 68.5729 29.8542 68.4688 29.75C68.3646 29.6458 68.2708 29.5417 68.1875 29.4375C68.125 29.3333 68.0938 29.2812 68.0938 29.2812ZM71.625 40.9375C71.4375 39.7708 71.5 38.5833 71.8125 37.375C72.1042 36.1875 72.5 35 73 33.8125C73.4792 32.625 73.9688 31.4375 74.4688 30.25C74.9688 29.0833 75.3125 27.9375 75.5 26.8125C75.5 26.7708 75.5833 26.6458 75.75 26.4375C75.9375 26.2292 76.1354 26.0104 76.3438 25.7812C76.5729 25.5312 76.7708 25.3021 76.9375 25.0938C77.125 24.8646 77.2292 24.7292 77.25 24.6875C77.5833 23.9583 77.9167 23.2917 78.25 22.6875C78.6042 22.0625 78.875 21.4583 79.0625 20.875C79.25 20.2917 79.3333 19.7188 79.3125 19.1562C79.2917 18.5729 79.0833 17.9479 78.6875 17.2812C78.6458 17.2396 78.625 17.1771 78.625 17.0938C78.625 17.0104 78.6458 16.9583 78.6875 16.9375C79.2917 16.1667 79.9896 15.5208 80.7812 15C81.5729 14.4792 82.4167 14.0625 83.3125 13.75C84.2083 13.4375 85.1354 13.2292 86.0938 13.125C87.0521 13.0208 88 13 88.9375 13.0625C89.7292 13.7292 90.2292 14.4896 90.4375 15.3438C90.6667 16.1771 90.6771 17.0521 90.4688 17.9688C90.2812 18.8646 89.9167 19.7708 89.375 20.6875C88.8542 21.6042 88.25 22.4583 87.5625 23.25C86.875 24.0417 86.1458 24.75 85.375 25.375C84.625 26 83.9167 26.4792 83.25 26.8125C82.6458 27.1042 82.1979 27.3021 81.9062 27.4062C81.6354 27.4896 81.3646 27.5417 81.0938 27.5625C80.8229 27.5833 80.4896 27.6042 80.0938 27.625C79.7188 27.6458 79.1354 27.7292 78.3438 27.875C77.9896 27.9375 77.6875 28.1042 77.4375 28.375C77.2083 28.625 77.0104 28.9167 76.8438 29.25C76.6979 29.5625 76.5729 29.8854 76.4688 30.2188C76.3854 30.5729 76.3021 30.8542 76.2188 31.0625C75.8438 31.9792 75.5 32.8229 75.1875 33.5938C74.8958 34.3854 74.6146 35.1562 74.3438 35.9062C74.0521 36.6771 73.7708 37.4688 73.5 38.2812C73.2292 39.0938 72.9479 39.9792 72.6562 40.9375C72.6146 41.0417 72.5417 41.125 72.4375 41.1875C72.3333 41.2708 72.2292 41.3125 72.125 41.3125C72 41.3333 71.8958 41.3125 71.8125 41.25C71.7083 41.2083 71.6458 41.1042 71.625 40.9375ZM78.6875 26.4688C79.6458 26.6562 80.5729 26.6042 81.4688 26.3125C82.3854 26.0208 83.2396 25.5729 84.0312 24.9688C84.8229 24.3438 85.5312 23.6042 86.1562 22.75C86.8021 21.875 87.3438 20.9583 87.7812 20C88.2188 19.0417 88.5417 18.0833 88.75 17.125C88.9583 16.1458 89.0208 15.25 88.9375 14.4375C88.6458 14.1875 88.2917 14.0625 87.875 14.0625C87.4792 14.0417 87.125 14.0521 86.8125 14.0938C85.6875 14.2396 84.8021 14.5312 84.1562 14.9688C83.5104 15.3854 82.9792 15.9167 82.5625 16.5625C82.1667 17.2083 81.8229 17.9583 81.5312 18.8125C81.2396 19.6458 80.8854 20.5521 80.4688 21.5312C80.3854 21.6771 80.2604 21.9375 80.0938 22.3125C79.9271 22.6667 79.75 23.0521 79.5625 23.4688C79.375 23.8646 79.1979 24.25 79.0312 24.625C78.8646 25 78.75 25.2604 78.6875 25.4062V26.4688ZM94.2188 29.6562C94.1979 29.6146 94.1875 29.5 94.1875 29.3125C94.1875 29.125 94.1979 29 94.2188 28.9375C94.2812 28.7083 94.3958 28.3125 94.5625 27.75C94.7292 27.1667 94.9062 26.5625 95.0938 25.9375C95.2812 25.2917 95.4583 24.6875 95.625 24.125C95.7917 23.5625 95.9062 23.1667 95.9688 22.9375C96.0521 22.6458 96.1458 22.3125 96.25 21.9375C96.3542 21.5417 96.375 21.1667 96.3125 20.8125C96 20.7708 95.6146 20.8125 95.1562 20.9375C94.6979 21.0417 94.2396 21.1354 93.7812 21.2188C93.3438 21.2812 92.9271 21.2812 92.5312 21.2188C92.1562 21.1354 91.8854 20.8854 91.7188 20.4688C91.9688 19.9479 92.3438 19.6146 92.8438 19.4688C93.3438 19.3021 93.8854 19.1875 94.4688 19.125C95.0521 19.0625 95.6042 18.9688 96.125 18.8438C96.6667 18.7188 97.0938 18.4375 97.4062 18C97.5938 17.4583 97.8125 16.8021 98.0625 16.0312C98.3333 15.2396 98.6146 14.4167 98.9062 13.5625C99.1979 12.7083 99.5104 11.8646 99.8438 11.0312C100.198 10.1979 100.562 9.45833 100.938 8.8125C101.167 8.66667 101.354 8.65625 101.5 8.78125C101.646 8.90625 101.75 9.09375 101.812 9.34375C101.896 9.57292 101.948 9.8125 101.969 10.0625C101.99 10.3125 101.99 10.4792 101.969 10.5625C101.844 11.1042 101.625 11.6875 101.312 12.3125C101.021 12.9167 100.74 13.5312 100.469 14.1562C100.219 14.7812 100.01 15.4062 99.8438 16.0312C99.6979 16.6562 99.6979 17.25 99.8438 17.8125H106.562C106.583 17.8125 106.635 17.8854 106.719 18.0312C106.802 18.1562 106.875 18.2604 106.938 18.3438C107.042 18.6354 106.927 18.8333 106.594 18.9375C106.26 19.0417 105.812 19.1146 105.25 19.1562C104.688 19.1771 104.042 19.1979 103.312 19.2188C102.604 19.2188 101.917 19.2708 101.25 19.375C100.604 19.4583 100.021 19.6146 99.5 19.8438C98.9792 20.0521 98.625 20.375 98.4375 20.8125C97.8958 22.2083 97.3958 23.6146 96.9375 25.0312C96.4792 26.4271 96.0417 27.8438 95.625 29.2812C95.5833 29.3438 95.5 29.4479 95.375 29.5938C95.25 29.7188 95.1146 29.8333 94.9688 29.9375C94.8229 30.0208 94.6771 30.0521 94.5312 30.0312C94.4062 30.0104 94.3021 29.8854 94.2188 29.6562Z" fill="black"/>
<path d="M131.529 26.3115C131.529 25.0875 131.767 21.5369 134.031 17.9354C135.432 15.7076 141.591 16.1615 145.495 16.9308C148.07 17.4382 149.901 22.1731 156.201 28.2295C158.678 30.611 163.763 32.0814 166.781 32.8069C169.8 33.5325 171.074 32.8461 171.997 32.0191C174.96 29.3626 174.913 26.4594 175.431 22.151C175.866 18.5395 174.526 15.0312 173.097 13.072C171.562 10.9683 168.757 10.3838 166.026 9.7368C162.037 8.79151 156.897 9.72803 155.293 10.8676C153.211 12.346 152.254 15.575 151.493 18.003C150.869 19.9912 149.213 25.426 147.324 32.3194C146.407 35.6637 145.38 37.2475 144.204 38.7459C143.272 39.9351 142.053 40.1105 141.093 40.1851C139.806 40.285 138.62 39.863 137.831 39.1425C135.52 37.0322 135.68 28.5675 137.194 21.8269C138.251 17.1244 145.379 14.1774 149.922 13.3563C153.69 12.6754 156.898 13.5549 158.856 14.4574C166.012 17.7557 169.524 24.0206 172.048 27.5251C177.96 35.7331 182.466 41.2956 183.239 41.9581C185.019 43.4818 186.732 43.0993 187.603 42.8622C189.342 42.3885 190.922 37.4329 194.382 28.2859C197.097 21.1107 196.544 11.8291 195.5 9.2411C195.33 8.81849 194.544 9.07646 194.229 9.31354C193.914 9.55063 193.831 10.0248 193.911 10.4309C194.355 12.6854 199.14 13.0795 201.519 14.0443C202.977 14.635 209.516 17.1956 218.317 20.8568C221.424 22.1492 221.823 22.1671 221.907 21.9014C221.992 21.6357 221.764 21.0537 221.208 20.4847C219.942 19.1895 216.455 18.0211 211.708 16.625C207.291 15.3257 200.609 15.2939 193.609 15.3739C187.767 15.4407 183.984 18.9047 181.233 21.6137C179.097 23.7166 176.6 31.0253 174.954 35.1618C174.532 36.2237 173.584 37.0737 172.624 37.8522C171.637 38.6516 170.124 38.6847 168.794 38.467C166.63 38.1128 166.434 33.7585 166.135 25.6139C165.846 17.7235 170.851 13.3435 173.619 11.3376C178.222 8.002 184.549 10.0986 188.886 12.4433C190.634 13.3884 193.819 16.5366 198.485 21.0646C204.96 27.3486 206.969 31.4614 206.996 32.2722C207.036 33.4272 204.446 34.1063 200.513 34.8707C194.314 36.0755 188.301 36.1513 184.646 35.9306C180.818 35.6994 179.626 33.2402 177.813 32.117C176.434 31.2632 174.559 31.1903 169.192 31.0012C164.638 30.8408 156.357 30.937 151.677 30.8746C144.583 30.78 142.057 30.0881 140.257 29.6026C139.503 29.3992 139.42 28.2115 138.804 27.6557C138.475 27.3588 137.822 27.4667 137.437 27.6377C136.745 27.945 136.448 28.845 135.878 29.4406C135.329 30.0149 134.429 30.0092 133.7 29.8528C133.336 29.7747 133.089 29.3839 132.986 29.0106C132.775 28.2409 133.385 27.4678 133.725 27.0621C133.961 26.7807 132.605 27.3156 132.148 27.2831C131.99 27.2719 132.31 26.7571 132.814 26.4215C137.241 23.4695 144.708 23.2964 149.688 22.3052C154.006 21.4459 161.911 19.634 166.947 18.4697C176.453 16.2721 178.468 15.777 185.18 14.737C191.986 13.6823 200.477 12.7157 201.196 12.1423C201.852 11.6181 201.301 10.551 201.154 9.97464C200.473 7.3026 208.92 9.83505 217.506 13.323C224.722 16.2543 228.776 21.4731 230.803 24.1071C232.543 26.3679 232.497 29.4574 232.308 31.7082C232.164 33.4299 230.546 34.0522 229.673 34.3855C225.865 35.8393 217.817 33.8585 214.701 32.0972C213.165 31.2285 212.491 29.7032 212.11 28.7051C211.934 28.2452 211.921 27.8363 212.024 27.3506C212.74 23.9671 218.566 19.7367 220.3 17.408C221.295 16.072 220.358 12.0783 221.152 9.0898C221.279 8.61437 221.919 8.62127 222.405 8.63951C225.056 8.73911 227.886 11.5042 229.351 13.3939C230.563 14.9577 230.999 18.7972 231.105 23.8549C231.133 25.2124 230.514 25.9486 229.699 26.7023C228.473 27.8361 226.476 28.2387 224.538 28.4933C222.456 28.7667 218.871 27.3039 214.063 24.5328C209.272 21.7714 206.278 18.4686 204.349 16.0769C200.973 11.8895 199.052 9.37284 196.905 8.79134C194.518 8.14467 192.145 10.4335 188.073 12.4011C185.435 13.6756 183.103 13.8397 180.846 13.9773C176.8 14.2238 172.182 14.3176 168.733 14.6136C163.861 15.0316 158.541 14.6523 157.068 13.9041C154.585 12.6428 150.121 13.8876 145.137 14.9479C143.213 15.3573 141.804 14.8312 140.686 14.1413C138.801 12.9778 138.611 9.95895 138.31 7.90999C138.128 6.67103 137.747 10.9542 137.369 12.584C136.681 15.5503 134.75 18.7272 134.684 19.4665C135.003 20.17 135.588 20.8464 136.179 21.5501C136.448 21.9279 136.658 22.3474 137.14 23.1802" stroke="black" stroke-width="2" stroke-linecap="round"/>
<path d="M263.134 14.968C263.838 14.968 264.47 15.032 265.03 15.16C265.59 15.288 266.054 15.432 266.422 15.592C266.79 15.736 267.03 15.872 267.142 16C267.206 16.048 267.238 16.096 267.238 16.144C267.254 16.176 267.262 16.216 267.262 16.264C267.262 16.552 267.262 16.84 267.262 17.128C267.262 17.416 267.262 17.712 267.262 18.016H266.902C266.342 17.712 265.774 17.472 265.198 17.296C264.638 17.12 263.982 17.032 263.23 17.032C262.366 17.032 261.646 17.168 261.07 17.44C260.51 17.696 260.086 18.104 259.798 18.664C259.526 19.224 259.39 19.928 259.39 20.776V22.576C259.39 23.168 259.47 23.688 259.63 24.136C259.79 24.584 260.022 24.96 260.326 25.264C260.63 25.568 261.014 25.8 261.478 25.96C261.942 26.12 262.51 26.2 263.182 26.2C263.694 26.2 264.158 26.16 264.574 26.08C264.99 26 265.382 25.888 265.75 25.744C266.134 25.6 266.518 25.432 266.902 25.24H267.262C267.262 25.528 267.262 25.824 267.262 26.128C267.262 26.416 267.262 26.704 267.262 26.992C267.262 27.024 267.254 27.056 267.238 27.088C267.238 27.12 267.222 27.152 267.19 27.184C267.03 27.36 266.75 27.528 266.35 27.688C265.966 27.848 265.486 27.984 264.91 28.096C264.334 28.208 263.71 28.264 263.038 28.264C262.126 28.264 261.302 28.136 260.566 27.88C259.846 27.608 259.23 27.232 258.718 26.752C258.206 26.272 257.814 25.696 257.542 25.024C257.27 24.336 257.134 23.576 257.134 22.744V20.56C257.134 19.376 257.382 18.368 257.878 17.536C258.39 16.704 259.094 16.072 259.99 15.64C260.886 15.192 261.934 14.968 263.134 14.968ZM276.684 14.968C277.5 14.968 278.244 15.104 278.916 15.376C279.588 15.632 280.164 15.992 280.644 16.456C281.14 16.92 281.516 17.472 281.772 18.112C282.028 18.752 282.156 19.456 282.156 20.224V22.888C282.156 23.944 281.916 24.88 281.436 25.696C280.972 26.496 280.324 27.128 279.492 27.592C278.66 28.04 277.724 28.264 276.684 28.264C275.868 28.264 275.124 28.136 274.452 27.88C273.78 27.624 273.196 27.264 272.7 26.8C272.22 26.32 271.852 25.76 271.596 25.12C271.34 24.48 271.212 23.776 271.212 23.008V20.344C271.212 19.272 271.444 18.336 271.908 17.536C272.388 16.736 273.044 16.112 273.876 15.664C274.708 15.2 275.644 14.968 276.684 14.968ZM276.804 16.984C276.068 16.984 275.444 17.136 274.932 17.44C274.436 17.744 274.052 18.152 273.78 18.664C273.524 19.176 273.396 19.76 273.396 20.416V22.84C273.396 23.368 273.476 23.848 273.636 24.28C273.812 24.696 274.044 25.056 274.332 25.36C274.604 25.632 274.924 25.848 275.292 26.008C275.676 26.168 276.1 26.248 276.564 26.248C277.3 26.248 277.916 26.096 278.412 25.792C278.924 25.472 279.308 25.056 279.564 24.544C279.836 24.032 279.972 23.456 279.972 22.816V20.392C279.972 19.832 279.892 19.336 279.732 18.904C279.588 18.472 279.364 18.112 279.06 17.824C278.804 17.552 278.484 17.344 278.1 17.2C277.716 17.056 277.284 16.984 276.804 16.984ZM289.707 14.968C290.283 14.968 290.795 15.056 291.243 15.232C291.691 15.392 292.099 15.632 292.467 15.952C292.851 16.272 293.187 16.664 293.475 17.128H294.195V19.744C293.619 18.816 293.003 18.144 292.347 17.728C291.691 17.296 291.003 17.08 290.283 17.08C289.755 17.08 289.291 17.2 288.891 17.44C288.507 17.664 288.203 18.008 287.979 18.472C287.771 18.92 287.667 19.48 287.667 20.152V23.2C287.667 23.712 287.731 24.16 287.859 24.544C288.003 24.912 288.187 25.216 288.411 25.456C288.635 25.68 288.907 25.848 289.227 25.96C289.547 26.072 289.899 26.128 290.283 26.128C290.747 26.128 291.203 26.048 291.651 25.888C292.099 25.712 292.539 25.432 292.971 25.048C293.403 24.664 293.811 24.16 294.195 23.536V26.056H293.475C293.187 26.52 292.851 26.912 292.467 27.232C292.083 27.552 291.651 27.8 291.171 27.976C290.707 28.152 290.203 28.24 289.659 28.24C289.051 28.24 288.483 28.136 287.955 27.928C287.443 27.704 287.003 27.392 286.635 26.992C286.267 26.592 285.979 26.104 285.771 25.528C285.579 24.952 285.483 24.296 285.483 23.56V19.792C285.483 19.04 285.579 18.368 285.771 17.776C285.979 17.184 286.267 16.68 286.635 16.264C287.019 15.848 287.467 15.528 287.979 15.304C288.507 15.08 289.083 14.968 289.707 14.968ZM295.779 10C295.843 10 295.891 10.016 295.923 10.048C295.955 10.064 295.979 10.088 295.995 10.12C296.027 10.152 296.043 10.2 296.043 10.264C296.043 11.496 296.043 12.752 296.043 14.032C296.043 15.312 296.043 16.584 296.043 17.848C296.043 19.112 296.043 20.36 296.043 21.592C296.043 22.808 296.043 23.984 296.043 25.12C296.043 25.664 296.043 26.184 296.043 26.68C296.043 27.16 296.043 27.6 296.043 28C295.883 28 295.715 28 295.539 28C295.379 28 295.219 28 295.059 28C294.899 28 294.739 28 294.579 28C294.419 28 294.259 28 294.099 28C294.051 28 294.003 27.992 293.955 27.976C293.923 27.944 293.891 27.912 293.859 27.88C293.843 27.848 293.835 27.8 293.835 27.736C293.835 26.456 293.835 25.176 293.835 23.896C293.835 22.616 293.835 21.344 293.835 20.08C293.835 18.8 293.835 17.52 293.835 16.24C293.835 14.96 293.835 13.68 293.835 12.4C293.835 12.016 293.835 11.624 293.835 11.224C293.835 10.824 293.835 10.416 293.835 10C293.995 10 294.155 10 294.315 10C294.475 10 294.635 10 294.795 10C294.955 10 295.115 10 295.275 10C295.451 10 295.619 10 295.779 10ZM305.538 14.968C306.482 14.968 307.346 15.168 308.13 15.568C308.914 15.952 309.538 16.544 310.002 17.344C310.482 18.128 310.722 19.136 310.722 20.368V22.12C310.722 22.168 310.706 22.216 310.674 22.264C310.658 22.296 310.634 22.328 310.602 22.36C310.57 22.376 310.522 22.384 310.458 22.384H304.242C303.97 22.384 303.698 22.384 303.426 22.384C303.154 22.384 302.89 22.384 302.634 22.384H301.914L301.602 20.824H308.562C308.562 20.744 308.562 20.664 308.562 20.584C308.562 20.504 308.562 20.424 308.562 20.344C308.562 19.72 308.49 19.184 308.346 18.736C308.218 18.272 308.01 17.896 307.722 17.608C307.466 17.368 307.154 17.192 306.786 17.08C306.418 16.952 306.002 16.888 305.538 16.888C304.498 16.888 303.698 17.168 303.138 17.728C302.578 18.272 302.298 19.168 302.298 20.416V22.936C302.298 23.288 302.33 23.616 302.394 23.92C302.458 24.208 302.546 24.472 302.658 24.712C302.786 24.952 302.938 25.168 303.114 25.36C303.434 25.68 303.85 25.92 304.362 26.08C304.89 26.224 305.498 26.296 306.186 26.296C306.762 26.296 307.274 26.264 307.722 26.2C308.17 26.136 308.586 26.032 308.97 25.888C309.37 25.744 309.77 25.56 310.17 25.336H310.53C310.53 25.624 310.53 25.912 310.53 26.2C310.53 26.488 310.53 26.768 310.53 27.04C310.53 27.072 310.522 27.104 310.506 27.136C310.49 27.168 310.466 27.2 310.434 27.232C310.242 27.424 309.93 27.6 309.498 27.76C309.066 27.92 308.562 28.04 307.986 28.12C307.41 28.216 306.802 28.264 306.162 28.264C305.186 28.264 304.314 28.152 303.546 27.928C302.778 27.688 302.138 27.344 301.626 26.896C301.13 26.432 300.754 25.872 300.498 25.216C300.242 24.56 300.114 23.8 300.114 22.936V20.44C300.114 19.512 300.25 18.704 300.522 18.016C300.81 17.328 301.202 16.76 301.698 16.312C302.194 15.864 302.77 15.528 303.426 15.304C304.082 15.08 304.786 14.968 305.538 14.968Z" fill="black"/>
<path d="M231.689 24.7313C232.216 24.3247 235.125 22.0975 237.286 20.6711C239.407 19.2713 243.526 20.5517 245.343 21.2127C246.088 21.4835 246.972 21.5661 247.54 21.4407C246.658 20.3741 245.882 19.1532 245.357 18.4726C245.097 18.1357 244.85 17.816 244.301 17.0854" stroke="black" stroke-width="2" stroke-linecap="round"/>
<path d="M247.775 21.5342C247.717 21.5342 247.377 21.8399 246.735 22.422C246.403 22.6984 246.058 22.9361 245.711 23.1748C245.364 23.4134 245.024 23.6457 244.186 24.2801" stroke="black" stroke-width="2" stroke-linecap="round"/>
<path d="M121.75 22.3168C122.798 21.4179 124.2 20.2369 125.884 19.2427C126.357 19.0098 126.853 18.803 128.13 18.6965C129.408 18.5899 131.453 18.5899 133.939 18.7958" stroke="black" stroke-width="2" stroke-linecap="round"/>
<path d="M108.208 23.072C109.093 23.072 111.579 23.6027 113.444 24.5742C115.376 25.0509 117.323 24.7429 119.073 24.0581C119.512 23.8939 119.939 23.7305 120.942 22.8691" stroke="black" stroke-width="2" stroke-linecap="round"/>
<path d="M321.094 20C320.541 20 320.094 20.4477 320.094 21C320.094 21.5523 320.541 22 321.094 22L321.094 21L321.094 20ZM346.76 21C346.76 23.9455 349.148 26.3333 352.094 26.3333C355.039 26.3333 357.427 23.9455 357.427 21C357.427 18.0545 355.039 15.6667 352.094 15.6667C349.148 15.6667 346.76 18.0545 346.76 21ZM321.094 21L321.094 22L352.094 22L352.094 21L352.094 20L321.094 20L321.094 21Z" fill="black"/>
</svg>
